# xmcd CD database file
#
# Track frame offsets:
#	150
#	20046
#	39973
#	55114
#	78327
#	93566
#	104165
#	124043
#	129237
#	146259
#
# Disc length: 2229 seconds
#
# Revision: 0
# Processed by: cddbd v1.5.1PL2 Copyright (c) Steve Scherf et al.
# Submitted via: CDex 1.60beta1-cs1
#
DISCID=7f08b30a
DTITLE=矢藤健一郎 - ジャズアレンジ Vol 5
DYEAR=1900
DGENRE=Jazz
TTITLE0=カヴァティーナ
TTITLE1=タイスの瞑想曲
TTITLE2=G線上のマリア
TTITLE3=夢のあとに
TTITLE4=愛の喜び
TTITLE5=ソルヴェーグの歌
TTITLE6=白鳥
TTITLE7=アニトラの踊り
TTITLE8=メヌエット
TTITLE9=アンダンテ・カンタービレ
EXTD=
EXTT0=
EXTT1=
EXTT2=
EXTT3=
EXTT4=
EXTT5=
EXTT6=
EXTT7=
EXTT8=
EXTT9=
PLAYORDER=
